<?xml version="1.0" encoding="utf-8"?>
<!-- Generator: Adobe Illustrator 17.1.0, SVG Export Plug-In . SVG Version: 6.00 Build 0)  -->
<!DOCTYPE svg PUBLIC "-//W3C//DTD SVG 1.1//EN" "http://www.w3.org/Graphics/SVG/1.1/DTD/svg11.dtd">
<svg version="1.1" xmlns="http://www.w3.org/2000/svg" xmlns:xlink="http://www.w3.org/1999/xlink" x="0px" y="0px"
	 viewBox="294.9 80.1 123 109.2" enable-background="new 294.9 80.1 123 109.2" xml:space="preserve">
<g id="Layer_2">
</g>
<g id="Layer_1">
	<path id="Shadow" opacity="0.18" enable-background="new    " d="M346,189.1c28.2,0,51.1-5.3,51.1-12s-22.9-12-51.1-12
		s-51.1,5.3-51.1,12C294.9,183.8,317.8,189.1,346,189.1L346,189.1z"/>
	<g>
		<defs>
			<rect id="SVGID_1_" x="294.9" y="80.1" width="123" height="109.2"/>
		</defs>
		<clipPath id="SVGID_2_">
			<use xlink:href="#SVGID_1_"  overflow="visible"/>
		</clipPath>
	</g>
	<g>
		<defs>
			<rect id="SVGID_3_" x="294.9" y="80.1" width="123" height="109.2"/>
		</defs>
		<clipPath id="SVGID_4_">
			<use xlink:href="#SVGID_3_"  overflow="visible"/>
		</clipPath>
	</g>
	<g>
		<defs>
			<rect id="SVGID_5_" x="294.9" y="80.1" width="123" height="109.2"/>
		</defs>
		<defs>
			<path id="SVGID_6_" d="M313.7,93.9c0,0,8.3,70.9,9.1,75.5c0.8,3.7,2.7,7.8,7.8,10c6.5,2.2,15.1,5,29.9,5c14.8,0,23.6-2.8,30-5
				c5.1-2.2,7-6.3,7.8-10c0.8-4.6,9.1-75.5,9.1-75.5H313.7L313.7,93.9z"/>
		</defs>
		<clipPath id="SVGID_7_">
			<use xlink:href="#SVGID_5_"  overflow="visible"/>
		</clipPath>
		<clipPath id="SVGID_8_" clip-path="url(#SVGID_7_)">
			<use xlink:href="#SVGID_6_"  overflow="visible"/>
		</clipPath>
	</g>
	<g>
		<defs>
			<rect id="SVGID_9_" x="294.9" y="80.1" width="123" height="109.2"/>
		</defs>
		<clipPath id="SVGID_10_">
			<use xlink:href="#SVGID_9_"  overflow="visible"/>
		</clipPath>
	</g>
	<g>
		<defs>
			<rect id="SVGID_11_" x="294.9" y="80.1" width="123" height="109.2"/>
		</defs>
		<defs>
			<path id="SVGID_12_" d="M313.7,93.9c0,0,8.3,70.9,9.1,75.5c0.8,3.7,2.7,7.8,7.8,10c6.5,2.2,15.1,5,29.9,5c14.8,0,23.6-2.8,30-5
				c5.1-2.2,7-6.3,7.8-10c0.8-4.6,9.1-75.5,9.1-75.5H313.7L313.7,93.9z"/>
		</defs>
		<clipPath id="SVGID_13_">
			<use xlink:href="#SVGID_11_"  overflow="visible"/>
		</clipPath>
		<clipPath id="SVGID_14_" clip-path="url(#SVGID_13_)">
			<use xlink:href="#SVGID_12_"  overflow="visible"/>
		</clipPath>
	</g>
	<g>
		<defs>
			<rect id="SVGID_15_" x="294.9" y="80.1" width="123" height="109.2"/>
		</defs>
		<defs>
			<path id="SVGID_16_" d="M313.7,93.9c0,0,8.3,70.9,9.1,75.5c0.8,3.7,2.7,7.8,7.8,10c6.5,2.2,15.1,5,29.9,5c14.8,0,23.6-2.8,30-5
				c5.1-2.2,7-6.3,7.8-10c0.8-4.6,9.1-75.5,9.1-75.5H313.7L313.7,93.9z"/>
		</defs>
		<defs>
			<rect id="SVGID_17_" x="-28.3" y="-138.2" width="766.7" height="545.1"/>
		</defs>
		<clipPath id="SVGID_18_">
			<use xlink:href="#SVGID_15_"  overflow="visible"/>
		</clipPath>
		<clipPath id="SVGID_19_" clip-path="url(#SVGID_18_)">
			<use xlink:href="#SVGID_16_"  overflow="visible"/>
		</clipPath>
		<clipPath id="SVGID_20_" clip-path="url(#SVGID_19_)">
			<use xlink:href="#SVGID_17_"  overflow="visible"/>
		</clipPath>
	</g>
	<g>
		<defs>
			<rect id="SVGID_21_" x="294.9" y="80.1" width="123" height="109.2"/>
		</defs>
		<defs>
			<path id="SVGID_22_" d="M313.7,93.9c0,0,8.3,70.9,9.1,75.5c0.8,3.7,2.7,7.8,7.8,10c6.5,2.2,15.1,5,29.9,5c14.8,0,23.6-2.8,30-5
				c5.1-2.2,7-6.3,7.8-10c0.8-4.6,9.1-75.5,9.1-75.5H313.7L313.7,93.9z"/>
		</defs>
		<defs>
			<rect id="SVGID_23_" x="-28.3" y="-138.2" width="766.7" height="545.1"/>
		</defs>
		<defs>
			<rect id="SVGID_24_" x="294.9" y="-232.5" width="325.8" height="421.6"/>
		</defs>
		<clipPath id="SVGID_25_">
			<use xlink:href="#SVGID_21_"  overflow="visible"/>
		</clipPath>
		<clipPath id="SVGID_26_" clip-path="url(#SVGID_25_)">
			<use xlink:href="#SVGID_22_"  overflow="visible"/>
		</clipPath>
		<clipPath id="SVGID_27_" clip-path="url(#SVGID_26_)">
			<use xlink:href="#SVGID_23_"  overflow="visible"/>
		</clipPath>
		<clipPath id="SVGID_28_" clip-path="url(#SVGID_27_)">
			<use xlink:href="#SVGID_24_"  overflow="visible"/>
		</clipPath>
		<path clip-path="url(#SVGID_28_)" fill="#FFFFFF" d="M310.8,91.2h99.1V187h-99.1V91.2z"/>
	</g>
	<g>
		<defs>
			<rect id="SVGID_29_" x="294.9" y="80.1" width="123" height="109.2"/>
		</defs>
		<clipPath id="SVGID_30_">
			<use xlink:href="#SVGID_29_"  overflow="visible"/>
		</clipPath>
		<path clip-path="url(#SVGID_30_)" fill="#494949" d="M360.3,187L360.3,187c-15.4,0-24.6-3.2-30.7-5.1h-0.2
			c-5-2.2-8.1-6.1-9.3-11.8c0,0,0,0,0-0.2c-0.8-4.8-8.8-72.9-9.1-75.7c-0.2-0.7,0.2-1.5,0.7-2.2c0.5-0.7,1.3-0.8,2-0.8h93.8
			c0.7,0,1.5,0.3,2,0.8c0.5,0.7,0.7,1.3,0.7,2.2c-0.3,2.8-8.3,71-9.1,75.7v0.2c-1.3,5.8-4.5,9.6-9.3,11.8h-0.2
			C385,184,375.9,187,360.3,187z M331.4,176.8c6.1,2.2,14.4,4.8,28.9,4.8c14.6,0,22.9-2.8,29-4.8c3.3-1.5,5.3-4,6.1-8
			c0.7-3.8,5.8-47.3,8.8-72.4h-87.6c3,25.1,8.1,68.4,8.8,72.4C326.3,172.9,328.3,175.4,331.4,176.8z"/>
	</g>
	<g>
		<defs>
			<rect id="SVGID_31_" x="294.9" y="80.1" width="123" height="109.2"/>
		</defs>
		<clipPath id="SVGID_32_">
			<use xlink:href="#SVGID_31_"  overflow="visible"/>
		</clipPath>
	</g>
	<g>
		<defs>
			<rect id="SVGID_33_" x="294.9" y="80.1" width="123" height="109.2"/>
		</defs>
		<clipPath id="SVGID_34_">
			<use xlink:href="#SVGID_33_"  overflow="visible"/>
		</clipPath>
	</g>
	<g>
		<defs>
			<rect id="SVGID_35_" x="294.9" y="80.1" width="123" height="109.2"/>
		</defs>
		<defs>
			<path id="SVGID_36_" d="M360.5,107.1c27.4,0,49.5-6.1,49.5-13.6s-22.1-13.6-49.5-13.6s-49.6,6.1-49.6,13.6
				S333.1,107.1,360.5,107.1L360.5,107.1z"/>
		</defs>
		<clipPath id="SVGID_37_">
			<use xlink:href="#SVGID_35_"  overflow="visible"/>
		</clipPath>
		<clipPath id="SVGID_38_" clip-path="url(#SVGID_37_)">
			<use xlink:href="#SVGID_36_"  overflow="visible"/>
		</clipPath>
	</g>
	<g>
		<defs>
			<rect id="SVGID_39_" x="294.9" y="80.1" width="123" height="109.2"/>
		</defs>
		<clipPath id="SVGID_40_">
			<use xlink:href="#SVGID_39_"  overflow="visible"/>
		</clipPath>
	</g>
	<g>
		<defs>
			<rect id="SVGID_41_" x="294.9" y="80.1" width="123" height="109.2"/>
		</defs>
		<defs>
			<path id="SVGID_42_" d="M360.5,107.1c27.4,0,49.5-6.1,49.5-13.6s-22.1-13.6-49.5-13.6s-49.6,6.1-49.6,13.6
				S333.1,107.1,360.5,107.1L360.5,107.1z"/>
		</defs>
		<clipPath id="SVGID_43_">
			<use xlink:href="#SVGID_41_"  overflow="visible"/>
		</clipPath>
		<clipPath id="SVGID_44_" clip-path="url(#SVGID_43_)">
			<use xlink:href="#SVGID_42_"  overflow="visible"/>
		</clipPath>
	</g>
	<g>
		<defs>
			<rect id="SVGID_45_" x="294.9" y="80.1" width="123" height="109.2"/>
		</defs>
		<defs>
			<path id="SVGID_46_" d="M360.5,107.1c27.4,0,49.5-6.1,49.5-13.6s-22.1-13.6-49.5-13.6s-49.6,6.1-49.6,13.6
				S333.1,107.1,360.5,107.1L360.5,107.1z"/>
		</defs>
		<defs>
			<path id="SVGID_47_" d="M297.6,66.6h125.7v53.8H297.6V66.6z M360.5,109.8c13.4,0,26.2-1.5,35.7-4c10.3-2.8,16.4-6.8,16.4-12.1
				c0-5.3-6.1-9.3-16.4-12.1c-9.5-2.5-22.2-4-35.7-4c-13.4,0-26.2,1.5-35.7,4c-10.3,2.8-16.4,6.8-16.4,12.1c0,5.3,6.1,9.3,16.4,12.1
				C334.2,108.3,346.9,109.8,360.5,109.8L360.5,109.8z M360.5,104.5c-13.1,0-25.4-1.5-34.4-3.8c-8.1-2.2-12.6-5.1-12.6-7
				c0-2,4.5-4.8,12.6-7c9-2.5,21.2-3.8,34.4-3.8c13.1,0,25.4,1.5,34.4,3.8c8.1,2.2,12.6,5.1,12.6,7c0,2-4.5,4.8-12.6,7
				C385.7,103,373.6,104.5,360.5,104.5L360.5,104.5z"/>
		</defs>
		<clipPath id="SVGID_48_">
			<use xlink:href="#SVGID_45_"  overflow="visible"/>
		</clipPath>
		<clipPath id="SVGID_49_" clip-path="url(#SVGID_48_)">
			<use xlink:href="#SVGID_46_"  overflow="visible"/>
		</clipPath>
		<clipPath id="SVGID_50_" clip-path="url(#SVGID_49_)">
			<use xlink:href="#SVGID_47_"  overflow="visible"/>
		</clipPath>
	</g>
	<g>
		<defs>
			<rect id="SVGID_51_" x="294.9" y="80.1" width="123" height="109.2"/>
		</defs>
		<clipPath id="SVGID_52_">
			<use xlink:href="#SVGID_51_"  overflow="visible"/>
		</clipPath>
	</g>
	<g>
		<defs>
			<rect id="SVGID_53_" x="294.9" y="80.1" width="123" height="109.2"/>
		</defs>
		<defs>
			<path id="SVGID_54_" d="M360.5,107.1c27.4,0,49.5-6.1,49.5-13.6s-22.1-13.6-49.5-13.6s-49.6,6.1-49.6,13.6
				S333.1,107.1,360.5,107.1L360.5,107.1z"/>
		</defs>
		<clipPath id="SVGID_55_">
			<use xlink:href="#SVGID_53_"  overflow="visible"/>
		</clipPath>
		<clipPath id="SVGID_56_" clip-path="url(#SVGID_55_)">
			<use xlink:href="#SVGID_54_"  overflow="visible"/>
		</clipPath>
	</g>
	<g>
		<defs>
			<rect id="SVGID_57_" x="294.9" y="80.1" width="123" height="109.2"/>
		</defs>
		<defs>
			<path id="SVGID_58_" d="M360.5,107.1c27.4,0,49.5-6.1,49.5-13.6s-22.1-13.6-49.5-13.6s-49.6,6.1-49.6,13.6
				S333.1,107.1,360.5,107.1L360.5,107.1z"/>
		</defs>
		<defs>
			<path id="SVGID_59_" d="M297.6,66.6h125.7v53.8H297.6V66.6z M360.5,109.8c13.4,0,26.2-1.5,35.7-4c10.3-2.8,16.4-6.8,16.4-12.1
				c0-5.3-6.1-9.3-16.4-12.1c-9.5-2.5-22.2-4-35.7-4c-13.4,0-26.2,1.5-35.7,4c-10.3,2.8-16.4,6.8-16.4,12.1c0,5.3,6.1,9.3,16.4,12.1
				C334.2,108.3,346.9,109.8,360.5,109.8L360.5,109.8z M360.5,104.5c-13.1,0-25.4-1.5-34.4-3.8c-8.1-2.2-12.6-5.1-12.6-7
				c0-2,4.5-4.8,12.6-7c9-2.5,21.2-3.8,34.4-3.8c13.1,0,25.4,1.5,34.4,3.8c8.1,2.2,12.6,5.1,12.6,7c0,2-4.5,4.8-12.6,7
				C385.7,103,373.6,104.5,360.5,104.5L360.5,104.5z"/>
		</defs>
		<clipPath id="SVGID_60_">
			<use xlink:href="#SVGID_57_"  overflow="visible"/>
		</clipPath>
		<clipPath id="SVGID_61_" clip-path="url(#SVGID_60_)">
			<use xlink:href="#SVGID_58_"  overflow="visible"/>
		</clipPath>
		<clipPath id="SVGID_62_" clip-path="url(#SVGID_61_)">
			<use xlink:href="#SVGID_59_"  overflow="visible"/>
		</clipPath>
	</g>
	<g>
		<defs>
			<rect id="SVGID_63_" x="294.9" y="80.1" width="123" height="109.2"/>
		</defs>
		<defs>
			<path id="SVGID_64_" d="M360.5,107.1c27.4,0,49.5-6.1,49.5-13.6s-22.1-13.6-49.5-13.6s-49.6,6.1-49.6,13.6
				S333.1,107.1,360.5,107.1L360.5,107.1z"/>
		</defs>
		<defs>
			<path id="SVGID_65_" d="M297.6,66.6h125.7v53.8H297.6V66.6z M360.5,109.8c13.4,0,26.2-1.5,35.7-4c10.3-2.8,16.4-6.8,16.4-12.1
				c0-5.3-6.1-9.3-16.4-12.1c-9.5-2.5-22.2-4-35.7-4c-13.4,0-26.2,1.5-35.7,4c-10.3,2.8-16.4,6.8-16.4,12.1c0,5.3,6.1,9.3,16.4,12.1
				C334.2,108.3,346.9,109.8,360.5,109.8L360.5,109.8z M360.5,104.5c-13.1,0-25.4-1.5-34.4-3.8c-8.1-2.2-12.6-5.1-12.6-7
				c0-2,4.5-4.8,12.6-7c9-2.5,21.2-3.8,34.4-3.8c13.1,0,25.4,1.5,34.4,3.8c8.1,2.2,12.6,5.1,12.6,7c0,2-4.5,4.8-12.6,7
				C385.7,103,373.6,104.5,360.5,104.5L360.5,104.5z"/>
		</defs>
		<defs>
			<rect id="SVGID_66_" x="-28.3" y="-138.2" width="766.7" height="545.1"/>
		</defs>
		<clipPath id="SVGID_67_">
			<use xlink:href="#SVGID_63_"  overflow="visible"/>
		</clipPath>
		<clipPath id="SVGID_68_" clip-path="url(#SVGID_67_)">
			<use xlink:href="#SVGID_64_"  overflow="visible"/>
		</clipPath>
		<clipPath id="SVGID_69_" clip-path="url(#SVGID_68_)">
			<use xlink:href="#SVGID_65_"  overflow="visible"/>
		</clipPath>
		<clipPath id="SVGID_70_" clip-path="url(#SVGID_69_)">
			<use xlink:href="#SVGID_66_"  overflow="visible"/>
		</clipPath>
	</g>
	<g>
		<defs>
			<rect id="SVGID_71_" x="294.9" y="80.1" width="123" height="109.2"/>
		</defs>
		<defs>
			<path id="SVGID_72_" d="M360.5,107.1c27.4,0,49.5-6.1,49.5-13.6s-22.1-13.6-49.5-13.6s-49.6,6.1-49.6,13.6
				S333.1,107.1,360.5,107.1L360.5,107.1z"/>
		</defs>
		<defs>
			<path id="SVGID_73_" d="M297.6,66.6h125.7v53.8H297.6V66.6z M360.5,109.8c13.4,0,26.2-1.5,35.7-4c10.3-2.8,16.4-6.8,16.4-12.1
				c0-5.3-6.1-9.3-16.4-12.1c-9.5-2.5-22.2-4-35.7-4c-13.4,0-26.2,1.5-35.7,4c-10.3,2.8-16.4,6.8-16.4,12.1c0,5.3,6.1,9.3,16.4,12.1
				C334.2,108.3,346.9,109.8,360.5,109.8L360.5,109.8z M360.5,104.5c-13.1,0-25.4-1.5-34.4-3.8c-8.1-2.2-12.6-5.1-12.6-7
				c0-2,4.5-4.8,12.6-7c9-2.5,21.2-3.8,34.4-3.8c13.1,0,25.4,1.5,34.4,3.8c8.1,2.2,12.6,5.1,12.6,7c0,2-4.5,4.8-12.6,7
				C385.7,103,373.6,104.5,360.5,104.5L360.5,104.5z"/>
		</defs>
		<defs>
			<rect id="SVGID_74_" x="-28.3" y="-138.2" width="766.7" height="545.1"/>
		</defs>
		<defs>
			<rect id="SVGID_75_" x="294.9" y="-232.5" width="325.8" height="421.6"/>
		</defs>
		<clipPath id="SVGID_76_">
			<use xlink:href="#SVGID_71_"  overflow="visible"/>
		</clipPath>
		<clipPath id="SVGID_77_" clip-path="url(#SVGID_76_)">
			<use xlink:href="#SVGID_72_"  overflow="visible"/>
		</clipPath>
		<clipPath id="SVGID_78_" clip-path="url(#SVGID_77_)">
			<use xlink:href="#SVGID_73_"  overflow="visible"/>
		</clipPath>
		<clipPath id="SVGID_79_" clip-path="url(#SVGID_78_)">
			<use xlink:href="#SVGID_74_"  overflow="visible"/>
		</clipPath>
		<clipPath id="SVGID_80_" clip-path="url(#SVGID_79_)">
			<use xlink:href="#SVGID_75_"  overflow="visible"/>
		</clipPath>
		<path clip-path="url(#SVGID_80_)" fill="#FFFFFF" d="M360.5,107.1c27.4,0,49.5-6.1,49.5-13.6s-22.1-13.6-49.5-13.6
			s-49.6,6.1-49.6,13.6S333.1,107.1,360.5,107.1L360.5,107.1z"/>
	</g>
	<g>
		<defs>
			<rect id="SVGID_81_" x="294.9" y="80.1" width="123" height="109.2"/>
		</defs>
		<clipPath id="SVGID_82_">
			<use xlink:href="#SVGID_81_"  overflow="visible"/>
		</clipPath>
	</g>
	<g>
		<defs>
			<rect id="SVGID_83_" x="294.9" y="80.1" width="123" height="109.2"/>
		</defs>
		<clipPath id="SVGID_84_">
			<use xlink:href="#SVGID_83_"  overflow="visible"/>
		</clipPath>
	</g>
	<g>
		<defs>
			<rect id="SVGID_85_" x="294.9" y="80.1" width="123" height="109.2"/>
		</defs>
		<defs>
			<path id="SVGID_86_" d="M360.5,107.1c27.4,0,49.5-6.1,49.5-13.6s-22.1-13.6-49.5-13.6s-49.6,6.1-49.6,13.6
				S333.1,107.1,360.5,107.1L360.5,107.1z"/>
		</defs>
		<clipPath id="SVGID_87_">
			<use xlink:href="#SVGID_85_"  overflow="visible"/>
		</clipPath>
		<clipPath id="SVGID_88_" clip-path="url(#SVGID_87_)">
			<use xlink:href="#SVGID_86_"  overflow="visible"/>
		</clipPath>
	</g>
	<g>
		<defs>
			<rect id="SVGID_89_" x="294.9" y="80.1" width="123" height="109.2"/>
		</defs>
		<clipPath id="SVGID_90_">
			<use xlink:href="#SVGID_89_"  overflow="visible"/>
		</clipPath>
	</g>
	<g>
		<defs>
			<rect id="SVGID_91_" x="294.9" y="80.1" width="123" height="109.2"/>
		</defs>
		<defs>
			<path id="SVGID_92_" d="M360.5,107.1c27.4,0,49.5-6.1,49.5-13.6s-22.1-13.6-49.5-13.6s-49.6,6.1-49.6,13.6
				S333.1,107.1,360.5,107.1L360.5,107.1z"/>
		</defs>
		<clipPath id="SVGID_93_">
			<use xlink:href="#SVGID_91_"  overflow="visible"/>
		</clipPath>
		<clipPath id="SVGID_94_" clip-path="url(#SVGID_93_)">
			<use xlink:href="#SVGID_92_"  overflow="visible"/>
		</clipPath>
	</g>
	<g>
		<defs>
			<rect id="SVGID_95_" x="294.9" y="80.1" width="123" height="109.2"/>
		</defs>
		<defs>
			<path id="SVGID_96_" d="M360.5,107.1c27.4,0,49.5-6.1,49.5-13.6s-22.1-13.6-49.5-13.6s-49.6,6.1-49.6,13.6
				S333.1,107.1,360.5,107.1L360.5,107.1z"/>
		</defs>
		<defs>
			<rect id="SVGID_97_" x="-28.3" y="-138.2" width="766.7" height="545.1"/>
		</defs>
		<clipPath id="SVGID_98_">
			<use xlink:href="#SVGID_95_"  overflow="visible"/>
		</clipPath>
		<clipPath id="SVGID_99_" clip-path="url(#SVGID_98_)">
			<use xlink:href="#SVGID_96_"  overflow="visible"/>
		</clipPath>
		<clipPath id="SVGID_100_" clip-path="url(#SVGID_99_)">
			<use xlink:href="#SVGID_97_"  overflow="visible"/>
		</clipPath>
	</g>
	<g>
		<defs>
			<rect id="SVGID_101_" x="294.9" y="80.1" width="123" height="109.2"/>
		</defs>
		<defs>
			<path id="SVGID_102_" d="M360.5,107.1c27.4,0,49.5-6.1,49.5-13.6s-22.1-13.6-49.5-13.6s-49.6,6.1-49.6,13.6
				S333.1,107.1,360.5,107.1L360.5,107.1z"/>
		</defs>
		<defs>
			<rect id="SVGID_103_" x="-28.3" y="-138.2" width="766.7" height="545.1"/>
		</defs>
		<defs>
			<rect id="SVGID_104_" x="294.9" y="-232.5" width="325.8" height="421.6"/>
		</defs>
		<clipPath id="SVGID_105_">
			<use xlink:href="#SVGID_101_"  overflow="visible"/>
		</clipPath>
		<clipPath id="SVGID_106_" clip-path="url(#SVGID_105_)">
			<use xlink:href="#SVGID_102_"  overflow="visible"/>
		</clipPath>
		<clipPath id="SVGID_107_" clip-path="url(#SVGID_106_)">
			<use xlink:href="#SVGID_103_"  overflow="visible"/>
		</clipPath>
		<clipPath id="SVGID_108_" clip-path="url(#SVGID_107_)">
			<use xlink:href="#SVGID_104_"  overflow="visible"/>
		</clipPath>
		<path clip-path="url(#SVGID_108_)" fill="#494949" d="M360.5,112.4c-13.6,0-26.6-1.5-36.4-4.1c-12.3-3.3-18.4-8.3-18.4-14.8
			s6.1-11.5,18.4-14.8c9.8-2.7,22.7-4.1,36.4-4.1c13.6,0,26.6,1.5,36.4,4.1c12.3,3.3,18.4,8.3,18.4,14.8s-6.1,11.5-18.4,14.8
			C387,111,374.1,112.4,360.5,112.4z M316.7,93.5c1.2,1.2,4.8,3.2,12.6,5c8.6,2,19.8,3.2,31.2,3.2s22.6-1.2,31.2-3.2
			c7.8-1.8,11.5-4,12.6-5c-1.2-1.2-4.8-3.2-12.6-5c-8.6-2-19.8-3.2-31.2-3.2c-11.6,0-22.6,1.2-31.2,3.2
			C321.3,90.4,317.8,92.5,316.7,93.5z"/>
	</g>
	<g>
		<defs>
			<rect id="SVGID_109_" x="294.9" y="80.1" width="123" height="109.2"/>
		</defs>
		<clipPath id="SVGID_110_">
			<use xlink:href="#SVGID_109_"  overflow="visible"/>
		</clipPath>
		<path clip-path="url(#SVGID_110_)" fill="#494949" d="M360,167.7c-17.9,0-32-5.3-42-16.1c-17.1-18.3-15.3-45.3-15.3-46.3
			c0.2-1.3,1.2-2.2,2.3-2.2h11.5v4.8h-9.1c0,6.6,1.2,26.7,14.1,40.5c9,9.6,21.9,14.4,38.5,14.4c16.8,0,29.9-5,38.8-14.6
			c12.9-13.8,14.1-33.9,14.1-40.5h-9.1V103h11.5c1.3,0,2.3,1,2.3,2.2c0.2,1.2,1.8,27.9-15.3,46.3C392.5,162.4,378.2,167.7,360,167.7
			z"/>
	</g>
	<g>
		<defs>
			<rect id="SVGID_111_" x="294.9" y="80.1" width="123" height="109.2"/>
		</defs>
		<clipPath id="SVGID_112_">
			<use xlink:href="#SVGID_111_"  overflow="visible"/>
		</clipPath>
	</g>
	<g>
		<defs>
			<rect id="SVGID_113_" x="294.9" y="80.1" width="123" height="109.2"/>
		</defs>
		<clipPath id="SVGID_114_">
			<use xlink:href="#SVGID_113_"  overflow="visible"/>
		</clipPath>
	</g>
	<g>
		<defs>
			<rect id="SVGID_115_" x="294.9" y="80.1" width="123" height="109.2"/>
		</defs>
		<defs>
			<path id="SVGID_116_" d="M344.7,140.2c2.2,0,4-1.8,4-4c0-2.2-1.8-4-4-4s-4,1.8-4,4S342.5,140.2,344.7,140.2L344.7,140.2z"/>
		</defs>
		<clipPath id="SVGID_117_">
			<use xlink:href="#SVGID_115_"  overflow="visible"/>
		</clipPath>
		<clipPath id="SVGID_118_" clip-path="url(#SVGID_117_)">
			<use xlink:href="#SVGID_116_"  overflow="visible"/>
		</clipPath>
	</g>
	<g>
		<defs>
			<rect id="SVGID_119_" x="294.9" y="80.1" width="123" height="109.2"/>
		</defs>
		<defs>
			<path id="SVGID_120_" d="M344.7,140.2c2.2,0,4-1.8,4-4c0-2.2-1.8-4-4-4s-4,1.8-4,4S342.5,140.2,344.7,140.2L344.7,140.2z"/>
		</defs>
		<defs>
			<rect id="SVGID_121_" x="-28.3" y="-138.2" width="766.7" height="545.1"/>
		</defs>
		<clipPath id="SVGID_122_">
			<use xlink:href="#SVGID_119_"  overflow="visible"/>
		</clipPath>
		<clipPath id="SVGID_123_" clip-path="url(#SVGID_122_)">
			<use xlink:href="#SVGID_120_"  overflow="visible"/>
		</clipPath>
		<clipPath id="SVGID_124_" clip-path="url(#SVGID_123_)">
			<use xlink:href="#SVGID_121_"  overflow="visible"/>
		</clipPath>
		<path clip-path="url(#SVGID_124_)" fill="#494949" d="M338.1,129.5h13.3v13.3h-13.3V129.5z"/>
	</g>
	<g>
		<defs>
			<rect id="SVGID_125_" x="294.9" y="80.1" width="123" height="109.2"/>
		</defs>
		<clipPath id="SVGID_126_">
			<use xlink:href="#SVGID_125_"  overflow="visible"/>
		</clipPath>
	</g>
	<g>
		<defs>
			<rect id="SVGID_127_" x="294.9" y="80.1" width="123" height="109.2"/>
		</defs>
		<clipPath id="SVGID_128_">
			<use xlink:href="#SVGID_127_"  overflow="visible"/>
		</clipPath>
	</g>
	<g>
		<defs>
			<rect id="SVGID_129_" x="294.9" y="80.1" width="123" height="109.2"/>
		</defs>
		<defs>
			<path id="SVGID_130_" d="M376.7,140.2c2.2,0,4-1.8,4-4c0-2.2-1.8-4-4-4c-2.2,0-4,1.8-4,4S374.4,140.2,376.7,140.2L376.7,140.2z"
				/>
		</defs>
		<clipPath id="SVGID_131_">
			<use xlink:href="#SVGID_129_"  overflow="visible"/>
		</clipPath>
		<clipPath id="SVGID_132_" clip-path="url(#SVGID_131_)">
			<use xlink:href="#SVGID_130_"  overflow="visible"/>
		</clipPath>
	</g>
	<g>
		<defs>
			<rect id="SVGID_133_" x="294.9" y="80.1" width="123" height="109.2"/>
		</defs>
		<clipPath id="SVGID_134_">
			<use xlink:href="#SVGID_133_"  overflow="visible"/>
		</clipPath>
	</g>
	<g>
		<defs>
			<rect id="SVGID_135_" x="294.9" y="80.1" width="123" height="109.2"/>
		</defs>
		<defs>
			<path id="SVGID_136_" d="M376.7,140.2c2.2,0,4-1.8,4-4c0-2.2-1.8-4-4-4c-2.2,0-4,1.8-4,4S374.4,140.2,376.7,140.2L376.7,140.2z"
				/>
		</defs>
		<clipPath id="SVGID_137_">
			<use xlink:href="#SVGID_135_"  overflow="visible"/>
		</clipPath>
		<clipPath id="SVGID_138_" clip-path="url(#SVGID_137_)">
			<use xlink:href="#SVGID_136_"  overflow="visible"/>
		</clipPath>
	</g>
	<g>
		<defs>
			<rect id="SVGID_139_" x="294.9" y="80.1" width="123" height="109.2"/>
		</defs>
		<defs>
			<path id="SVGID_140_" d="M376.7,140.2c2.2,0,4-1.8,4-4c0-2.2-1.8-4-4-4c-2.2,0-4,1.8-4,4S374.4,140.2,376.7,140.2L376.7,140.2z"
				/>
		</defs>
		<defs>
			<rect id="SVGID_141_" x="-28.3" y="-138.2" width="766.7" height="545.1"/>
		</defs>
		<clipPath id="SVGID_142_">
			<use xlink:href="#SVGID_139_"  overflow="visible"/>
		</clipPath>
		<clipPath id="SVGID_143_" clip-path="url(#SVGID_142_)">
			<use xlink:href="#SVGID_140_"  overflow="visible"/>
		</clipPath>
		<clipPath id="SVGID_144_" clip-path="url(#SVGID_143_)">
			<use xlink:href="#SVGID_141_"  overflow="visible"/>
		</clipPath>
	</g>
	<g>
		<defs>
			<rect id="SVGID_145_" x="294.9" y="80.1" width="123" height="109.2"/>
		</defs>
		<defs>
			<path id="SVGID_146_" d="M376.7,140.2c2.2,0,4-1.8,4-4c0-2.2-1.8-4-4-4c-2.2,0-4,1.8-4,4S374.4,140.2,376.7,140.2L376.7,140.2z"
				/>
		</defs>
		<defs>
			<rect id="SVGID_147_" x="-28.3" y="-138.2" width="766.7" height="545.1"/>
		</defs>
		<defs>
			<rect id="SVGID_148_" x="294.9" y="-232.5" width="325.8" height="421.6"/>
		</defs>
		<clipPath id="SVGID_149_">
			<use xlink:href="#SVGID_145_"  overflow="visible"/>
		</clipPath>
		<clipPath id="SVGID_150_" clip-path="url(#SVGID_149_)">
			<use xlink:href="#SVGID_146_"  overflow="visible"/>
		</clipPath>
		<clipPath id="SVGID_151_" clip-path="url(#SVGID_150_)">
			<use xlink:href="#SVGID_147_"  overflow="visible"/>
		</clipPath>
		<clipPath id="SVGID_152_" clip-path="url(#SVGID_151_)">
			<use xlink:href="#SVGID_148_"  overflow="visible"/>
		</clipPath>
		<path clip-path="url(#SVGID_152_)" fill="#494949" d="M370.1,129.5h13.3v13.3h-13.3V129.5z"/>
	</g>
</g>
</svg>
